G04*
G04 #@! TF.GenerationSoftware,Altium Limited,Altium Designer,26.5.0 (11)*
G04*
G04 Layer_Physical_Order=2*
G04 Layer_Color=16711680*
G04 Board_Origin=0|0*
%FSLAX25Y25*%
%MOIN*%
G70*
G04*
G04 #@! TF.SameCoordinates,16AA42FE-D0A4-46C9-A2DA-9D5C204A68EB*
G04*
G04*
G04 #@! TF.FilePolarity,Positive*
G04*
G01*
G75*
%ADD16C,0.06000*%
%ADD37C,0.04724*%
%ADD38R,0.04724X0.04724*%
%ADD42C,0.02000*%
%ADD44O,0.06299X0.03543*%
%ADD45C,0.05000*%
G36*
X587000Y194706D02*
X586000Y194438D01*
X585701Y194956D01*
X584956Y195701D01*
X584044Y196227D01*
X583027Y196500D01*
X583000D01*
Y192500D01*
X582500D01*
Y192000D01*
X578500D01*
Y191973D01*
X578773Y190956D01*
X579299Y190044D01*
X580044Y189299D01*
X580562Y189000D01*
X580294Y188000D01*
X493000D01*
Y190794D01*
X494000Y191062D01*
X494299Y190544D01*
X495044Y189799D01*
X495956Y189273D01*
X496973Y189000D01*
X497000D01*
Y193000D01*
Y197000D01*
X496973D01*
X495956Y196727D01*
X495044Y196201D01*
X494299Y195456D01*
X494000Y194938D01*
X493000Y195206D01*
Y271794D01*
X494000Y272062D01*
X494299Y271544D01*
X495044Y270799D01*
X495956Y270273D01*
X496973Y270000D01*
X497000D01*
Y274000D01*
X497500D01*
Y274500D01*
X501500D01*
Y274527D01*
X501227Y275544D01*
X500701Y276456D01*
X499956Y277201D01*
X499438Y277500D01*
X499706Y278500D01*
X579794D01*
X580062Y277500D01*
X579544Y277201D01*
X578799Y276456D01*
X578273Y275544D01*
X578000Y274527D01*
Y274500D01*
X586000D01*
Y274527D01*
X585727Y275544D01*
X585201Y276456D01*
X584456Y277201D01*
X583938Y277500D01*
X584206Y278500D01*
X587000D01*
Y194706D01*
D02*
G37*
%LPC*%
G36*
X586000Y273500D02*
X582500D01*
Y270000D01*
X582527D01*
X583544Y270273D01*
X584456Y270799D01*
X585201Y271544D01*
X585727Y272456D01*
X586000Y273473D01*
Y273500D01*
D02*
G37*
G36*
X581500D02*
X578000D01*
Y273473D01*
X578273Y272456D01*
X578799Y271544D01*
X579544Y270799D01*
X580456Y270273D01*
X581473Y270000D01*
X581500D01*
Y273500D01*
D02*
G37*
G36*
X501500D02*
X498000D01*
Y270000D01*
X498027D01*
X499044Y270273D01*
X499956Y270799D01*
X500701Y271544D01*
X501227Y272456D01*
X501500Y273473D01*
Y273500D01*
D02*
G37*
G36*
X566000Y267989D02*
Y265000D01*
X568990D01*
X568761Y265851D01*
X568301Y266649D01*
X567649Y267301D01*
X566851Y267761D01*
X566000Y267989D01*
D02*
G37*
G36*
X565000D02*
X564149Y267761D01*
X563351Y267301D01*
X562699Y266649D01*
X562239Y265851D01*
X562010Y265000D01*
X565000D01*
Y267989D01*
D02*
G37*
G36*
X553000Y265490D02*
Y262500D01*
X555990D01*
X555761Y263351D01*
X555301Y264149D01*
X554649Y264801D01*
X553851Y265262D01*
X553000Y265490D01*
D02*
G37*
G36*
X552000D02*
X551149Y265262D01*
X550351Y264801D01*
X549699Y264149D01*
X549238Y263351D01*
X549011Y262500D01*
X552000D01*
Y265490D01*
D02*
G37*
G36*
X568990Y264000D02*
X566000D01*
Y261011D01*
X566851Y261239D01*
X567649Y261699D01*
X568301Y262351D01*
X568761Y263149D01*
X568990Y264000D01*
D02*
G37*
G36*
X565000D02*
X562010D01*
X562239Y263149D01*
X562699Y262351D01*
X563351Y261699D01*
X564149Y261239D01*
X565000Y261011D01*
Y264000D01*
D02*
G37*
G36*
X555990Y261500D02*
X553000D01*
Y258510D01*
X553851Y258738D01*
X554649Y259199D01*
X555301Y259851D01*
X555761Y260649D01*
X555990Y261500D01*
D02*
G37*
G36*
X552000D02*
X549011D01*
X549238Y260649D01*
X549699Y259851D01*
X550351Y259199D01*
X551149Y258738D01*
X552000Y258510D01*
Y261500D01*
D02*
G37*
G36*
X505563Y257410D02*
X502807D01*
X501882Y257226D01*
X501097Y256702D01*
X500573Y255918D01*
X500389Y254992D01*
X500573Y254067D01*
X501097Y253282D01*
X501882Y252758D01*
X502807Y252574D01*
X505563D01*
X506488Y252758D01*
X507273Y253282D01*
X507797Y254067D01*
X507981Y254992D01*
X507797Y255918D01*
X507273Y256702D01*
X506488Y257226D01*
X505563Y257410D01*
D02*
G37*
G36*
X526500Y248990D02*
Y246000D01*
X529490D01*
X529261Y246851D01*
X528801Y247649D01*
X528149Y248301D01*
X527351Y248762D01*
X526500Y248990D01*
D02*
G37*
G36*
X525500D02*
X524649Y248762D01*
X523851Y248301D01*
X523199Y247649D01*
X522739Y246851D01*
X522510Y246000D01*
X525500D01*
Y248990D01*
D02*
G37*
G36*
X529490Y245000D02*
X526500D01*
Y242010D01*
X527351Y242238D01*
X528149Y242699D01*
X528801Y243351D01*
X529261Y244149D01*
X529490Y245000D01*
D02*
G37*
G36*
X525500D02*
X522510D01*
X522739Y244149D01*
X523199Y243351D01*
X523851Y242699D01*
X524649Y242238D01*
X525500Y242010D01*
Y245000D01*
D02*
G37*
G36*
X534351Y239639D02*
Y236649D01*
X537340D01*
X537112Y237500D01*
X536652Y238298D01*
X536000Y238950D01*
X535202Y239411D01*
X534351Y239639D01*
D02*
G37*
G36*
X533351D02*
X532500Y239411D01*
X531702Y238950D01*
X531050Y238298D01*
X530589Y237500D01*
X530361Y236649D01*
X533351D01*
Y239639D01*
D02*
G37*
G36*
X537340Y235649D02*
X534351D01*
Y232660D01*
X535202Y232888D01*
X536000Y233348D01*
X536652Y234000D01*
X537112Y234798D01*
X537340Y235649D01*
D02*
G37*
G36*
X533351D02*
X530361D01*
X530589Y234798D01*
X531050Y234000D01*
X531702Y233348D01*
X532500Y232888D01*
X533351Y232660D01*
Y235649D01*
D02*
G37*
G36*
X525000Y234489D02*
Y231500D01*
X527989D01*
X527762Y232351D01*
X527301Y233149D01*
X526649Y233801D01*
X525851Y234261D01*
X525000Y234489D01*
D02*
G37*
G36*
X524000D02*
X523149Y234261D01*
X522351Y233801D01*
X521699Y233149D01*
X521239Y232351D01*
X521010Y231500D01*
X524000D01*
Y234489D01*
D02*
G37*
G36*
X582908Y235100D02*
X582092D01*
X581303Y234889D01*
X580597Y234481D01*
X580019Y233903D01*
X580000Y233870D01*
D01*
X579862Y233631D01*
X569500D01*
X568876Y233507D01*
X568347Y233154D01*
X547212Y212019D01*
X546908Y212100D01*
X546092D01*
X545303Y211889D01*
X544597Y211481D01*
X544019Y210903D01*
X543611Y210197D01*
X543400Y209408D01*
Y208592D01*
X543611Y207803D01*
X544019Y207097D01*
X544597Y206519D01*
X545303Y206111D01*
X546092Y205900D01*
X546908D01*
X547697Y206111D01*
X548403Y206519D01*
X548981Y207097D01*
X549389Y207803D01*
X549600Y208592D01*
Y209408D01*
X549519Y209712D01*
X570176Y230369D01*
X579862D01*
X580019Y230097D01*
X580597Y229519D01*
X581303Y229111D01*
X582092Y228900D01*
X582908D01*
X583697Y229111D01*
X584403Y229519D01*
X584981Y230097D01*
X585389Y230803D01*
X585600Y231592D01*
Y232408D01*
X585389Y233197D01*
X584981Y233903D01*
X584403Y234481D01*
X583697Y234889D01*
X582908Y235100D01*
D02*
G37*
G36*
X527989Y230500D02*
X525000D01*
Y227510D01*
X525851Y227738D01*
X526649Y228199D01*
X527301Y228851D01*
X527762Y229649D01*
X527989Y230500D01*
D02*
G37*
G36*
X524000D02*
X521010D01*
X521239Y229649D01*
X521699Y228851D01*
X522351Y228199D01*
X523149Y227738D01*
X524000Y227510D01*
Y230500D01*
D02*
G37*
G36*
X505563Y231426D02*
X502807D01*
X501882Y231242D01*
X501097Y230718D01*
X500573Y229933D01*
X500389Y229008D01*
X500573Y228082D01*
X501097Y227298D01*
X501882Y226774D01*
X502807Y226590D01*
X505563D01*
X506488Y226774D01*
X507273Y227298D01*
X507797Y228082D01*
X507981Y229008D01*
X507797Y229933D01*
X507273Y230718D01*
X506488Y231242D01*
X505563Y231426D01*
D02*
G37*
G36*
X569000Y214989D02*
Y212000D01*
X571989D01*
X571762Y212851D01*
X571301Y213649D01*
X570649Y214301D01*
X569851Y214761D01*
X569000Y214989D01*
D02*
G37*
G36*
X568000D02*
X567149Y214761D01*
X566351Y214301D01*
X565699Y213649D01*
X565239Y212851D01*
X565010Y212000D01*
X568000D01*
Y214989D01*
D02*
G37*
G36*
X505000Y211989D02*
Y209000D01*
X507990D01*
X507761Y209851D01*
X507301Y210649D01*
X506649Y211301D01*
X505851Y211761D01*
X505000Y211989D01*
D02*
G37*
G36*
X504000D02*
X503149Y211761D01*
X502351Y211301D01*
X501699Y210649D01*
X501238Y209851D01*
X501011Y209000D01*
X504000D01*
Y211989D01*
D02*
G37*
G36*
X571989Y211000D02*
X569000D01*
Y208011D01*
X569851Y208239D01*
X570649Y208699D01*
X571301Y209351D01*
X571762Y210149D01*
X571989Y211000D01*
D02*
G37*
G36*
X568000D02*
X565010D01*
X565239Y210149D01*
X565699Y209351D01*
X566351Y208699D01*
X567149Y208239D01*
X568000Y208011D01*
Y211000D01*
D02*
G37*
G36*
X507990Y208000D02*
X505000D01*
Y205011D01*
X505851Y205239D01*
X506649Y205699D01*
X507301Y206351D01*
X507761Y207149D01*
X507990Y208000D01*
D02*
G37*
G36*
X504000D02*
X501011D01*
X501238Y207149D01*
X501699Y206351D01*
X502351Y205699D01*
X503149Y205239D01*
X504000Y205011D01*
Y208000D01*
D02*
G37*
G36*
X533390Y202962D02*
X532610D01*
X531857Y202760D01*
X531181Y202370D01*
X530630Y201819D01*
X530240Y201143D01*
X530038Y200390D01*
Y199610D01*
X530240Y198857D01*
X530630Y198181D01*
X531181Y197630D01*
X531857Y197240D01*
X532610Y197038D01*
X533390D01*
X534143Y197240D01*
X534819Y197630D01*
X535370Y198181D01*
X535760Y198857D01*
X535962Y199610D01*
Y200390D01*
X535760Y201143D01*
X535370Y201819D01*
X534819Y202370D01*
X534143Y202760D01*
X533390Y202962D01*
D02*
G37*
G36*
X528088D02*
X522164D01*
Y197038D01*
X528088D01*
Y202962D01*
D02*
G37*
G36*
X575000Y199989D02*
Y197000D01*
X577989D01*
X577762Y197851D01*
X577301Y198649D01*
X576649Y199301D01*
X575851Y199761D01*
X575000Y199989D01*
D02*
G37*
G36*
X574000D02*
X573149Y199761D01*
X572351Y199301D01*
X571699Y198649D01*
X571239Y197851D01*
X571010Y197000D01*
X574000D01*
Y199989D01*
D02*
G37*
G36*
X498027Y197000D02*
X498000D01*
Y193500D01*
X501500D01*
Y193527D01*
X501227Y194544D01*
X500701Y195456D01*
X499956Y196201D01*
X499044Y196727D01*
X498027Y197000D01*
D02*
G37*
G36*
X577989Y196000D02*
X575000D01*
Y193010D01*
X575851Y193238D01*
X576649Y193699D01*
X577301Y194351D01*
X577762Y195149D01*
X577989Y196000D01*
D02*
G37*
G36*
X574000D02*
X571010D01*
X571239Y195149D01*
X571699Y194351D01*
X572351Y193699D01*
X573149Y193238D01*
X574000Y193010D01*
Y196000D01*
D02*
G37*
G36*
X582000Y196500D02*
X581973D01*
X580956Y196227D01*
X580044Y195701D01*
X579299Y194956D01*
X578773Y194044D01*
X578500Y193027D01*
Y193000D01*
X582000D01*
Y196500D01*
D02*
G37*
G36*
X501500Y192500D02*
X498000D01*
Y189000D01*
X498027D01*
X499044Y189273D01*
X499956Y189799D01*
X500701Y190544D01*
X501227Y191456D01*
X501500Y192473D01*
Y192500D01*
D02*
G37*
%LPD*%
D16*
X497500Y274000D02*
D03*
X582000D02*
D03*
X582500Y192500D02*
D03*
X497500Y193000D02*
D03*
D37*
X533000Y200000D02*
D03*
D38*
X525126D02*
D03*
D42*
X569500Y232000D02*
X582500D01*
X546500Y209000D02*
X569500Y232000D01*
D44*
X504185Y229008D02*
D03*
Y254992D02*
D03*
D45*
X533851Y236149D02*
D03*
X574500Y196500D02*
D03*
X582500Y232000D02*
D03*
X565500Y264500D02*
D03*
X546500Y209000D02*
D03*
X568500Y211500D02*
D03*
X552500Y262000D02*
D03*
X526000Y245500D02*
D03*
X524500Y231000D02*
D03*
X504500Y208500D02*
D03*
M02*
