G04*
G04 #@! TF.GenerationSoftware,Altium Limited,Altium Designer,26.5.0 (11)*
G04*
G04 Layer_Color=8388736*
G04 Board_Origin=0|0*
%FSLAX25Y25*%
%MOIN*%
G70*
G04*
G04 #@! TF.SameCoordinates,16AA42FE-D0A4-46C9-A2DA-9D5C204A68EB*
G04*
G04*
G04 #@! TF.FilePolarity,Negative*
G04*
G01*
G75*
%ADD19R,0.02977X0.04355*%
%ADD20R,0.02203X0.01860*%
%ADD21R,0.03075X0.02648*%
%ADD22R,0.02977X0.05733*%
%ADD25R,0.04944X0.06922*%
%ADD26R,0.01860X0.02203*%
%ADD27R,0.03150X0.03150*%
%ADD30C,0.06800*%
%ADD31R,0.06800X0.06800*%
%ADD32R,0.04737X0.03162*%
%ADD33O,0.06509X0.03162*%
%ADD34R,0.06115X0.02375*%
%ADD35R,0.08280X0.08280*%
%ADD36R,0.06312X0.07099*%
%ADD37C,0.04724*%
%ADD38R,0.04724X0.04724*%
%ADD39O,0.07099X0.04343*%
%ADD40C,0.05800*%
D19*
X574123Y220500D02*
D03*
X566840D02*
D03*
X552142Y254500D02*
D03*
X561642Y211500D02*
D03*
X554358D02*
D03*
X544858Y254500D02*
D03*
D20*
X570463Y243500D02*
D03*
X567500D02*
D03*
D21*
X557833Y220500D02*
D03*
X554167D02*
D03*
D22*
X531732Y254500D02*
D03*
X523268D02*
D03*
D25*
X504983Y219000D02*
D03*
X516017D02*
D03*
D26*
X548136Y219563D02*
D03*
X540636D02*
D03*
X548136Y216600D02*
D03*
X540636D02*
D03*
D27*
X532500Y221953D02*
D03*
X524000Y220953D02*
D03*
Y215047D02*
D03*
X532500Y216047D02*
D03*
D30*
X497000Y219500D02*
D03*
Y264500D02*
D03*
X497500Y274000D02*
D03*
X582000D02*
D03*
X582500Y192500D02*
D03*
X497500Y193000D02*
D03*
D31*
X582500Y204000D02*
D03*
Y219000D02*
D03*
Y244000D02*
D03*
Y258500D02*
D03*
D32*
X562481Y237500D02*
D03*
Y233760D02*
D03*
Y230020D02*
D03*
X573111D02*
D03*
Y233760D02*
D03*
Y237500D02*
D03*
X573296Y250260D02*
D03*
Y254000D02*
D03*
Y257740D02*
D03*
X562666D02*
D03*
Y254000D02*
D03*
Y250260D02*
D03*
D33*
X532408Y245581D02*
D03*
Y235581D02*
D03*
X553865Y230581D02*
D03*
Y235581D02*
D03*
Y240581D02*
D03*
Y245581D02*
D03*
X532408Y230581D02*
D03*
Y240581D02*
D03*
D34*
X514716Y236882D02*
D03*
Y247118D02*
D03*
Y244559D02*
D03*
Y242000D02*
D03*
Y239441D02*
D03*
D35*
X504185Y246724D02*
D03*
Y237276D02*
D03*
D36*
X513831Y254598D02*
D03*
Y229402D02*
D03*
D37*
X533000Y200000D02*
D03*
D38*
X525126D02*
D03*
D39*
X504185Y229008D02*
D03*
Y254992D02*
D03*
D40*
X533851Y236149D02*
D03*
X574500Y196500D02*
D03*
X582500Y232000D02*
D03*
X565500Y264500D02*
D03*
X546500Y209000D02*
D03*
X568500Y211500D02*
D03*
X552500Y262000D02*
D03*
X526000Y245500D02*
D03*
X524500Y231000D02*
D03*
X504500Y208500D02*
D03*
M02*
