G04*
G04 #@! TF.GenerationSoftware,Altium Limited,Altium Designer,26.5.0 (11)*
G04*
G04 Layer_Color=65535*
G04 Board_Origin=0|0*
%FSLAX25Y25*%
%MOIN*%
G70*
G04*
G04 #@! TF.SameCoordinates,16AA42FE-D0A4-46C9-A2DA-9D5C204A68EB*
G04*
G04*
G04 #@! TF.FilePolarity,Positive*
G04*
G01*
G75*
%ADD10C,0.00984*%
%ADD11C,0.02362*%
%ADD12C,0.00787*%
%ADD13C,0.00200*%
%ADD14C,0.00500*%
%ADD15C,0.00300*%
D10*
X516169Y200000D02*
G03*
X516169Y200000I-492J0D01*
G01*
X562973Y240846D02*
G03*
X562973Y240846I-492J0D01*
G01*
X573788Y246913D02*
G03*
X573788Y246913I-492J0D01*
G01*
X532900Y248928D02*
G03*
X532900Y248928I-492J0D01*
G01*
X532992Y212189D02*
G03*
X532992Y212189I-492J0D01*
G01*
X524492Y211307D02*
G03*
X524492Y211307I-492J0D01*
G01*
X520130Y247118D02*
G03*
X520130Y247118I-492J0D01*
G01*
D11*
X541955Y243987D02*
G03*
X541955Y243987I-1181J0D01*
G01*
D12*
X540677Y188976D02*
Y206693D01*
X517449D02*
X540677D01*
X517449Y188976D02*
Y206693D01*
Y188976D02*
X540677D01*
X566025Y239665D02*
X569568D01*
X566025Y227854D02*
X569568D01*
X566025D02*
Y239665D01*
X569568Y227854D02*
Y239665D01*
X569509Y222678D02*
X571453D01*
X569509Y218322D02*
X571453D01*
X566398Y246158D02*
X571564D01*
X566398Y240843D02*
X571564D01*
X566210Y248095D02*
X569753D01*
X566210Y259906D02*
X569753D01*
Y248095D02*
Y259906D01*
X566210Y248095D02*
Y259906D01*
X525937Y257366D02*
X529063D01*
X525937Y251634D02*
X529063D01*
X552630Y217601D02*
X559370D01*
X552630Y223399D02*
X559370D01*
X536837Y228239D02*
X549436D01*
X536837Y247924D02*
X549436D01*
Y228239D02*
Y247924D01*
X536837Y228239D02*
Y247924D01*
X545479Y215498D02*
Y220664D01*
X550794Y215498D02*
Y220664D01*
X508636Y215539D02*
X512364D01*
X508636Y222461D02*
X512364D01*
X537979Y215498D02*
Y220664D01*
X543294Y215498D02*
Y220664D01*
X535748Y215752D02*
Y222248D01*
X529252Y215752D02*
Y222248D01*
X527051Y214653D02*
Y221346D01*
X520949Y214653D02*
Y221346D01*
X547528Y256678D02*
X549472D01*
X547528Y252322D02*
X549472D01*
X495524Y257472D02*
X499512D01*
X507815D02*
X509500D01*
X495524Y226528D02*
Y257472D01*
Y226528D02*
X499512D01*
X507815D02*
X509500D01*
X557028Y213678D02*
X558972D01*
X557028Y209322D02*
X558972D01*
D13*
X521564Y225519D02*
Y224319D01*
X522164D01*
X522364Y224519D01*
Y225319D01*
X522164Y225519D01*
X521564D01*
X522764Y224319D02*
X523164D01*
X522963D01*
Y225519D01*
X522764Y225319D01*
X522300Y260400D02*
X522100Y260600D01*
X521700D01*
X521500Y260400D01*
Y259600D01*
X521700Y259400D01*
X522100D01*
X522300Y259600D01*
X523500Y259400D02*
X522700D01*
X523500Y260200D01*
Y260400D01*
X523300Y260600D01*
X522900D01*
X522700Y260400D01*
X561800Y216400D02*
X561600Y216600D01*
X561200D01*
X561000Y216400D01*
Y215600D01*
X561200Y215400D01*
X561600D01*
X561800Y215600D01*
X562800Y215400D02*
Y216600D01*
X562200Y216000D01*
X563000D01*
X507501Y211500D02*
Y213000D01*
X508251D01*
X508501Y212750D01*
Y212250D01*
X508251Y212000D01*
X507501D01*
X508001D02*
X508501Y211500D01*
X509001Y211000D02*
Y212500D01*
X509750D01*
X510000Y212250D01*
Y211750D01*
X509750Y211500D01*
X509001D01*
X510500Y212500D02*
Y211500D01*
Y212000D01*
X510750Y212250D01*
X511000Y212500D01*
X511250D01*
X512250Y211500D02*
X512749D01*
X512999Y211750D01*
Y212250D01*
X512749Y212500D01*
X512250D01*
X512000Y212250D01*
Y211750D01*
X512250Y211500D01*
X513999Y211000D02*
X514249D01*
X514499Y211250D01*
Y212500D01*
X513749D01*
X513499Y212250D01*
Y211750D01*
X513749Y211500D01*
X514499D01*
X556000Y226400D02*
Y227600D01*
X556600D01*
X556800Y227400D01*
Y227000D01*
X556600Y226800D01*
X556000D01*
X556400D02*
X556800Y226400D01*
X557800D02*
Y227600D01*
X557200Y227000D01*
X558000D01*
X563000Y243400D02*
Y244600D01*
X563600D01*
X563800Y244400D01*
Y244000D01*
X563600Y243800D01*
X563000D01*
X563400D02*
X563800Y243400D01*
X564200Y244400D02*
X564400Y244600D01*
X564800D01*
X565000Y244400D01*
Y244200D01*
X564800Y244000D01*
X564600D01*
X564800D01*
X565000Y243800D01*
Y243600D01*
X564800Y243400D01*
X564400D01*
X564200Y243600D01*
X547200Y212900D02*
Y214100D01*
X547800D01*
X548000Y213900D01*
Y213500D01*
X547800Y213300D01*
X547200D01*
X547600D02*
X548000Y212900D01*
X548400D02*
X548800D01*
X548600D01*
Y214100D01*
X548400Y213900D01*
X537500Y222900D02*
Y224100D01*
X538100D01*
X538300Y223900D01*
Y223500D01*
X538100Y223300D01*
X537500D01*
X537900D02*
X538300Y222900D01*
X539500D02*
X538700D01*
X539500Y223700D01*
Y223900D01*
X539300Y224100D01*
X538900D01*
X538700Y223900D01*
X527500Y225600D02*
Y224400D01*
X528100D01*
X528300Y224600D01*
Y225400D01*
X528100Y225600D01*
X527500D01*
X529500Y224400D02*
X528700D01*
X529500Y225200D01*
Y225400D01*
X529300Y225600D01*
X528900D01*
X528700Y225400D01*
X570800Y216400D02*
X570600Y216600D01*
X570200D01*
X570000Y216400D01*
Y215600D01*
X570200Y215400D01*
X570600D01*
X570800Y215600D01*
X571200Y216400D02*
X571400Y216600D01*
X571800D01*
X572000Y216400D01*
Y216200D01*
X571800Y216000D01*
X571600D01*
X571800D01*
X572000Y215800D01*
Y215600D01*
X571800Y215400D01*
X571400D01*
X571200Y215600D01*
X546500Y259900D02*
X546300Y260100D01*
X545900D01*
X545700Y259900D01*
Y259100D01*
X545900Y258900D01*
X546300D01*
X546500Y259100D01*
X546900Y258900D02*
X547300D01*
X547100D01*
Y260100D01*
X546900Y259900D01*
D14*
X515166Y205500D02*
X514500D01*
X514833D01*
Y203834D01*
X514500Y203500D01*
X514167D01*
X513834Y203834D01*
D15*
X494300Y213800D02*
X494800D01*
X494550D01*
Y212300D01*
X494300D01*
X494800D01*
X495550D02*
Y213800D01*
X496549Y212300D01*
Y213800D01*
X497049Y213050D02*
X498049D01*
X495300Y269799D02*
X495800D01*
X495550D01*
Y268300D01*
X495300D01*
X495800D01*
X496550D02*
Y269799D01*
X497549Y268300D01*
Y269799D01*
X498049Y269050D02*
X499049D01*
X498549Y269550D02*
Y268550D01*
X580550Y209800D02*
X580050D01*
X579800Y209550D01*
Y208550D01*
X580050Y208300D01*
X580550D01*
X580800Y208550D01*
Y209550D01*
X580550Y209800D01*
X581299D02*
Y208550D01*
X581549Y208300D01*
X582049D01*
X582299Y208550D01*
Y209800D01*
X582799D02*
X583799D01*
X583299D01*
Y208300D01*
X584299Y209050D02*
X585298D01*
X580049Y224533D02*
Y223034D01*
X580799D01*
X581049Y223284D01*
Y223534D01*
X580799Y223784D01*
X580049D01*
X580799D01*
X581049Y224033D01*
Y224283D01*
X580799Y224533D01*
X580049D01*
X581549Y223034D02*
Y224033D01*
X582049Y224533D01*
X582548Y224033D01*
Y223034D01*
Y223784D01*
X581549D01*
X583048Y224533D02*
X584048D01*
X583548D01*
Y223034D01*
X584548Y223784D02*
X585547D01*
X576800Y239300D02*
Y237800D01*
X577550D01*
X577800Y238050D01*
Y238300D01*
X577550Y238550D01*
X576800D01*
X577550D01*
X577800Y238800D01*
Y239050D01*
X577550Y239300D01*
X576800D01*
X578300Y237800D02*
Y238800D01*
X578799Y239300D01*
X579299Y238800D01*
Y237800D01*
Y238550D01*
X578300D01*
X579799Y239300D02*
X580799D01*
X580299D01*
Y237800D01*
X581299Y238550D02*
X582298D01*
X581798Y239050D02*
Y238050D01*
X581050Y264300D02*
X580550D01*
X580300Y264050D01*
Y263050D01*
X580550Y262800D01*
X581050D01*
X581300Y263050D01*
Y264050D01*
X581050Y264300D01*
X581800D02*
Y263050D01*
X582049Y262800D01*
X582549D01*
X582799Y263050D01*
Y264300D01*
X583299D02*
X584299D01*
X583799D01*
Y262800D01*
X584799Y263550D02*
X585798D01*
X585298Y264050D02*
Y263050D01*
X561834Y226500D02*
Y224834D01*
X562167Y224500D01*
X562834D01*
X563167Y224834D01*
Y226500D01*
X565166Y224500D02*
X563833D01*
X565166Y225833D01*
Y226167D01*
X564833Y226500D01*
X564166D01*
X563833Y226167D01*
X542667Y226500D02*
Y224834D01*
X543000Y224500D01*
X543667D01*
X544000Y224834D01*
Y226500D01*
X544666Y224500D02*
X545333D01*
X545000D01*
Y226500D01*
X544666Y226167D01*
X560500Y261500D02*
Y262500D01*
X560250Y262750D01*
X559750D01*
X559500Y262500D01*
Y261500D01*
X559750Y261250D01*
X560250D01*
X560000Y261750D02*
X560500Y261250D01*
X560250D02*
X560500Y261500D01*
X561000Y261250D02*
X561500D01*
X561250D01*
Y262750D01*
X561000Y262500D01*
M02*
