G04*
G04 #@! TF.GenerationSoftware,Altium Limited,Altium Designer,26.5.0 (11)*
G04*
G04 Layer_Color=8388736*
G04 Board_Origin=0|0*
%FSLAX25Y25*%
%MOIN*%
G70*
G04*
G04 #@! TF.SameCoordinates,A2BF44B4-2607-44BE-AF02-65B6401681CA*
G04*
G04*
G04 #@! TF.FilePolarity,Negative*
G04*
G01*
G75*
%ADD15R,0.04724X0.04724*%
%ADD16R,0.03543X0.05512*%
%ADD23R,0.02977X0.04355*%
%ADD24R,0.02203X0.01860*%
%ADD25R,0.03075X0.02648*%
%ADD26R,0.02977X0.05733*%
%ADD28R,0.01860X0.02203*%
%ADD29R,0.03150X0.03150*%
%ADD30R,0.06312X0.07099*%
%ADD31R,0.08280X0.08280*%
%ADD32R,0.06115X0.02375*%
%ADD33C,0.06800*%
%ADD34R,0.06800X0.06800*%
%ADD35R,0.04737X0.03162*%
%ADD36O,0.06509X0.03162*%
%ADD37O,0.07099X0.04343*%
%ADD38C,0.04724*%
%ADD39R,0.04724X0.04724*%
%ADD40C,0.05800*%
D15*
X524000Y222134D02*
D03*
Y213866D02*
D03*
D16*
X514543Y219000D02*
D03*
X507457D02*
D03*
D23*
X574123Y220500D02*
D03*
X566840D02*
D03*
X552142Y254500D02*
D03*
X561642Y211500D02*
D03*
X554358D02*
D03*
X544858Y254500D02*
D03*
D24*
X570463Y243500D02*
D03*
X567500D02*
D03*
D25*
X557833Y220500D02*
D03*
X554167D02*
D03*
D26*
X531732Y254500D02*
D03*
X523268D02*
D03*
D28*
X548136Y219563D02*
D03*
X540636D02*
D03*
X548136Y216600D02*
D03*
X540636D02*
D03*
D29*
X532500Y221953D02*
D03*
Y216047D02*
D03*
D30*
X513831Y229402D02*
D03*
Y254598D02*
D03*
D31*
X504185Y237276D02*
D03*
Y246724D02*
D03*
D32*
X514716Y239441D02*
D03*
Y242000D02*
D03*
Y244559D02*
D03*
Y247118D02*
D03*
Y236882D02*
D03*
D33*
X497000Y219500D02*
D03*
Y264500D02*
D03*
X497500Y274000D02*
D03*
X582000D02*
D03*
X582500Y192500D02*
D03*
X497500Y193000D02*
D03*
D34*
X582500Y204000D02*
D03*
Y219000D02*
D03*
Y244000D02*
D03*
Y258500D02*
D03*
D35*
X562481Y237500D02*
D03*
Y233760D02*
D03*
Y230020D02*
D03*
X573111D02*
D03*
Y233760D02*
D03*
Y237500D02*
D03*
X573296Y250260D02*
D03*
Y254000D02*
D03*
Y257740D02*
D03*
X562666D02*
D03*
Y254000D02*
D03*
Y250260D02*
D03*
D36*
X532408Y245581D02*
D03*
Y235581D02*
D03*
X553865Y230581D02*
D03*
Y235581D02*
D03*
Y240581D02*
D03*
Y245581D02*
D03*
X532408Y230581D02*
D03*
Y240581D02*
D03*
D37*
X504185Y254992D02*
D03*
Y229008D02*
D03*
D38*
X533000Y200000D02*
D03*
D39*
X525126D02*
D03*
D40*
X574500Y196500D02*
D03*
X582500Y232000D02*
D03*
X565500Y264500D02*
D03*
X546500Y209000D02*
D03*
X568500Y211500D02*
D03*
X552500Y262000D02*
D03*
X524500Y231000D02*
D03*
X504500Y208500D02*
D03*
M02*
